<svg width="100%" height="100%" overflow="visible" style="display: block;" viewBox="0 0 40 40" fill="none" xmlns="http://www.w3.org/2000/svg">
<path id="Subtract" d="M20 0C31.0457 0 40 8.9543 40 20C40 31.0457 31.0457 40 20 40C8.9543 40 0 31.0457 0 20C2.6801e-05 8.95432 8.95432 2.68028e-05 20 0ZM9.19629 18.9961C8.87873 18.9961 8.62109 19.248 8.62109 19.5586V24.6211C8.62109 27.1062 10.6804 29.1209 13.2207 29.1211H27.0215C29.5618 29.1209 31.6211 27.1062 31.6211 24.6211V19.5586C31.6211 19.248 31.3634 18.9961 31.0459 18.9961H9.19629ZM25.8711 22.3711C26.5062 22.3711 27.0215 22.8748 27.0215 23.4961C27.0215 24.1174 26.5062 24.6211 25.8711 24.6211H22.4209C21.7858 24.621 21.2715 24.1174 21.2715 23.4961C21.2715 22.8748 21.7858 22.3712 22.4209 22.3711H25.8711ZM13.2207 11.1211C10.6804 11.1213 8.62109 13.1359 8.62109 15.6211V16.1836C8.62109 16.4943 8.87873 16.7461 9.19629 16.7461H31.0459C31.3634 16.7461 31.6211 16.4943 31.6211 16.1836V15.6211C31.6211 13.1359 29.5618 11.1213 27.0215 11.1211H13.2207Z" fill="#163300"/>
</svg>
